<?xml version='1.0' encoding='utf-8'?>
<svg xmlns:xlink="http://www.w3.org/1999/xlink" xmlns="http://www.w3.org/2000/svg" version="1.1" id="Layer_1" x="0px" y="0px" width="3000px" height="2220.866px" viewBox="0 0 3000 2220.866" enable-background="new 0 0 3000 2220.866"> <g> <rect fill="#EEDECF" width="3000" height="2220.868"/> <g> <rect x="1014.845" y="257.931" fill="#E0E4F3" width="595.429" height="1185.869"/> <g> <defs> <rect id="SVGID_1_" x="1014.845" y="257.931" width="595.429" height="1185.869"/> </defs> <clipPath id="SVGID_2_"> <use xlink:href="#SVGID_1_" overflow="visible"/> </clipPath> <polygon clip-path="url(#SVGID_2_)" fill="#E6EBF6" points="1538.633,289.215 1011.343,839.516 1011.343,932.986 1687.226,303.306 "/> <polygon clip-path="url(#SVGID_2_)" fill="#E6EBF6" points="1551.438,509.278 1024.153,1059.581 998.903,1127.806 1674.782,498.122 "/> <polygon clip-path="url(#SVGID_2_)" fill="#E6EBF6" points="1508.127,-43.287 980.841,507.017 980.841,600.487 1656.72,-29.193 "/> <polygon clip-path="url(#SVGID_2_)" fill="#E6EBF6" points="1498.088,175.925 970.803,726.229 945.552,794.453 1621.432,164.77 "/> <polygon clip-path="url(#SVGID_2_)" fill="#E6EBF6" points="1576.961,763.007 1010.236,1414.187 983.098,1494.915 1709.533,749.806 "/> <polygon clip-path="url(#SVGID_2_)" fill="#E6EBF6" points="1535.634,686.373 1008.345,1236.677 983.098,1304.901 1658.977,675.216 "/> <polygon clip-path="url(#SVGID_2_)" fill="#E6EBF6" points="1635.471,967.447 1108.185,1517.751 1082.933,1585.974 1758.813,956.291 "/> <polygon clip-path="url(#SVGID_2_)" fill="#E6EBF6" points="1745.819,1054.372 1218.531,1604.675 1193.283,1672.899 1869.16,1043.216 "/> </g> <g> <g> <path fill="#FFFFFF" d="M1618.54,1452.067h-611.962V249.664h611.962V1452.067z M1023.112,1435.532h578.894V266.198h-578.894 V1435.532z"/> </g> <g> <rect x="1014.845" y="724.015" fill="#FFFFFF" width="595.429" height="16.533"/> </g> <g> <rect x="1014.845" y="486.837" fill="#FFFFFF" width="595.429" height="16.534"/> </g> <g> <rect x="1014.845" y="249.664" fill="#FFFFFF" width="595.429" height="16.534"/> </g> <g> <rect x="1014.845" y="961.189" fill="#FFFFFF" width="595.429" height="16.533"/> </g> <g> <rect x="1014.845" y="1198.358" fill="#FFFFFF" width="595.429" height="16.535"/> </g> <g> <rect x="1014.845" y="1435.532" fill="#FFFFFF" width="595.429" height="16.535"/> </g> </g> <g> <rect x="1304.29" y="257.931" fill="#FFFFFF" width="16.534" height="1185.869"/> </g> <rect x="889.802" y="1443.8" fill="#FFFFFF" width="845.521" height="69.777"/> <g> <path fill="#FFFFFF" d="M1761.544,184.314c0,6.839-5.54,12.382-12.373,12.382H892.907c-6.834,0-12.38-5.543-12.38-12.382l0,0 c0-6.835,5.546-12.379,12.38-12.379h856.264C1756.004,171.935,1761.544,177.479,1761.544,184.314L1761.544,184.314z"/> <g> <ellipse fill="#FFFFFF" cx="1748.379" cy="184.314" rx="25.486" ry="20.965"/> <ellipse fill="#FFFFFF" cx="1766.318" cy="184.805" rx="22.908" ry="9.659"/> </g> <g> <ellipse fill="#FFFFFF" cx="890.362" cy="184.314" rx="25.486" ry="20.962"/> <ellipse fill="#FFFFFF" cx="872.422" cy="183.822" rx="22.907" ry="9.656"/> </g> </g> <g> <path fill="#FFFFFF" d="M1468.031,210.198c0,2.928-2.371,5.303-5.301,5.303l0,0c-2.928,0-5.3-2.375-5.3-5.303v-41.546 c0-2.924,2.372-5.3,5.3-5.3l0,0c2.93,0,5.301,2.375,5.301,5.3V210.198z"/> <path fill="#FFFFFF" d="M1541.821,210.198c0,2.928-2.372,5.303-5.298,5.303l0,0c-2.928,0-5.302-2.375-5.302-5.303v-41.546 c0-2.924,2.374-5.3,5.302-5.3l0,0c2.926,0,5.298,2.375,5.298,5.3V210.198z"/> <path fill="#FFFFFF" d="M1605.435,210.198c0,2.928-2.375,5.303-5.3,5.303l0,0c-2.928,0-5.303-2.375-5.303-5.303v-41.546 c0-2.924,2.375-5.3,5.303-5.3l0,0c2.925,0,5.3,2.375,5.3,5.3V210.198z"/> <path fill="#FFFFFF" d="M1674.56,210.198c0,2.928-2.374,5.303-5.3,5.303l0,0c-2.928,0-5.303-2.375-5.303-5.303v-41.546 c0-2.924,2.375-5.3,5.303-5.3l0,0c2.926,0,5.3,2.375,5.3,5.3V210.198z"/> <path fill="#FFFFFF" d="M1722.893,210.198c0,2.928-2.373,5.303-5.299,5.303l0,0c-2.928,0-5.302-2.375-5.302-5.303v-41.546 c0-2.924,2.374-5.3,5.302-5.3l0,0c2.926,0,5.299,2.375,5.299,5.3V210.198z"/> <path fill="#FFFFFF" d="M1457.66,209.47c0.894-4.055,2.325-4.489,4.32-2.702c2.004,1.791,4.535,5.924,7.679,10.406 c3.143,4.485,7.201,8.855,11.432,11.991c4.512,2.716,8.895,4.338,12.657,4.03c5.577-0.693,10.543-1.744,14.94-3.258 c4.38-1.507,8.262-3.358,11.647-5.396c3.23-1.884,6.031-3.743,8.466-6c2.492-2.131,4.651-4.944,6.327-8.845 c4.112,3.366,6.191,10.438,8.883,15.282c2.398,4.639,4.781,8.536,8.035,12.149c1.628,1.475,3.823,2.724,6.509,3.409 c2.679,0.585,5.966,0.452,9.648-0.33c4.073-1.417,8.521-3.491,12.82-6.067c4.053-3.29,7.361-6.99,9.712-10.797 c1.598-2.967,2.847-6.236,3.79-9.321c0.962-3.021,1.678-5.773,2.139-7.88c1.339-2.838,1.369-6.243-1.548-8.708 c0.388,2.056,1.389,3.864,2.897,5.655c1.567,2.146,3.676,4.869,6.259,8.497c2.805,4.535,6.144,9.889,9.697,15.314 c2.463,3.638,4.862,6.692,7.214,9.171c2.263,2.329,4.539,4.187,6.817,5.475c4.548,1.22,9.17,0.528,13.362-1.636 c2.45-1.263,4.981-2.902,7.433-4.865c2.449-1.959,4.826-4.255,6.976-6.785c4.463-4.424,8.175-8.855,9.899-13.176 c1.412-3.785,1.396-6.731,2.362-9.835c0,0,1.211,3.768,4.52,8.12c1.837,3.811,4.442,9.43,7.894,15.748 c2.595,4.543,5.471,8.439,8.51,10.66c3.028,2.203,6.25,2.996,9.66,2.035c3.411-0.965,6.988-3.621,10.537-9.29 c1.801-2.989,3.57-7.783,5.521-14.83c1.042-3.768,2.129-7.528,3.218-11.044c1.086-3.52,2.137-6.709,3.187-9.455 c0,0,0.04,1.895,0.122,6.405c-0.002,2.58-0.021,6.046-0.047,10.058c-0.026,4.012,0.023,8.31,0.149,12.555 c0.204,3.8,0.319,7.094,0.395,10.323c0.079,3.157,0.122,6.509,0.124,10.057c0,3.545,0,7.349,0,11.399 c0,190.295,0,924.292,0,924.292s-236.609-271.792-270.631-688.388c-3.78-46.287-5.062-94.364-3.185-144.027 c0.298-8.715,0.692-17.478,1.293-26.211c0.747-8.619,1.507-17.237,2.13-25.91c0.615-8.787,1.194-17.84,1.667-27.13 c0.193-4.209,0.431-8.475,0.708-12.752c0.282-4.284,0.604-8.54,0.833-12.72c0.228-4.184,0.389-8.26,0.575-12.221 c0.186-3.961,0.438-7.847,0.758-11.737C1456.313,217.306,1456.79,213.417,1457.66,209.47z"/> <path fill="#FFFFFF" d="M1721.822,1182.28c0,0-113.252,22.838-91.242,182.674h17.883c0,0-1.376,25.691,11.003,20.545 c12.379-5.145,26.136-14.771,26.136-14.771s-3.389-15.676,7.936-5.773c11.32,9.9,19.971,12.648,21.148,5.773 c1.177-6.879,0-15.131,0-15.131L1721.822,1182.28z"/> <path fill="#FBC9AC" d="M1735.322,1177.466c0,6.078-4.929,11.004-11.007,11.004h-19.773c-6.08,0-11.005-4.926-11.005-11.004l0,0 c0-6.078,4.925-11.006,11.005-11.006h19.773C1730.394,1166.46,1735.322,1171.388,1735.322,1177.466L1735.322,1177.466z"/> </g> <g> <path fill="#FFFFFF" d="M1171.057,210.198c0,2.928,2.372,5.303,5.3,5.303l0,0c2.928,0,5.3-2.375,5.3-5.303v-41.546 c0-2.924-2.372-5.3-5.3-5.3l0,0c-2.928,0-5.3,2.375-5.3,5.3V210.198z"/> <path fill="#FFFFFF" d="M1097.268,210.198c0,2.928,2.372,5.303,5.298,5.303l0,0c2.93,0,5.301-2.375,5.301-5.303v-41.546 c0-2.924-2.371-5.3-5.301-5.3l0,0c-2.926,0-5.298,2.375-5.298,5.3V210.198z"/> <path fill="#FFFFFF" d="M1033.652,210.198c0,2.928,2.375,5.303,5.304,5.303l0,0c2.926,0,5.299-2.375,5.299-5.303v-41.546 c0-2.924-2.373-5.3-5.299-5.3l0,0c-2.929,0-5.304,2.375-5.304,5.3V210.198z"/> <path fill="#FFFFFF" d="M964.529,210.198c0,2.928,2.372,5.303,5.302,5.303l0,0c2.928,0,5.299-2.375,5.299-5.303v-41.546 c0-2.924-2.371-5.3-5.299-5.3l0,0c-2.93,0-5.302,2.375-5.302,5.3V210.198z"/> <path fill="#FFFFFF" d="M916.196,210.198c0,2.928,2.371,5.303,5.299,5.303l0,0c2.926,0,5.302-2.375,5.302-5.303v-41.546 c0-2.924-2.376-5.3-5.302-5.3l0,0c-2.928,0-5.299,2.375-5.299,5.3V210.198z"/> <path fill="#FFFFFF" d="M1181.427,209.47c-0.892-4.055-2.325-4.489-4.32-2.702c-2.002,1.791-4.533,5.924-7.677,10.406 c-3.146,4.485-7.201,8.855-11.437,11.991c-4.508,2.716-8.891,4.338-12.65,4.03c-5.58-0.693-10.545-1.744-14.944-3.258 c-4.378-1.507-8.262-3.358-11.647-5.396c-3.232-1.884-6.029-3.743-8.466-6c-2.492-2.131-4.653-4.944-6.327-8.845 c-4.109,3.366-6.189,10.438-8.877,15.282c-2.402,4.639-4.787,8.536-8.041,12.149c-1.628,1.475-3.822,2.724-6.508,3.409 c-2.68,0.585-5.969,0.452-9.648-0.33c-4.072-1.417-8.521-3.491-12.823-6.067c-4.05-3.29-7.359-6.99-9.706-10.797 c-1.601-2.967-2.853-6.236-3.793-9.321c-0.961-3.021-1.678-5.773-2.139-7.88c-1.34-2.838-1.372-6.243,1.547-8.708 c-0.386,2.056-1.391,3.864-2.896,5.655c-1.564,2.146-3.676,4.869-6.261,8.497c-2.803,4.535-6.145,9.889-9.697,15.314 c-2.46,3.638-4.86,6.692-7.214,9.171c-2.261,2.329-4.539,4.187-6.817,5.475c-4.547,1.22-9.17,0.528-13.362-1.636 c-2.452-1.263-4.98-2.902-7.431-4.865c-2.451-1.959-4.826-4.255-6.979-6.785c-4.459-4.424-8.171-8.855-9.902-13.176 c-1.408-3.785-1.392-6.731-2.355-9.835c0,0-1.213,3.768-4.521,8.12c-1.837,3.811-4.442,9.43-7.899,15.748 c-2.591,4.543-5.467,8.439-8.504,10.66c-3.028,2.203-6.254,2.996-9.662,2.035c-3.411-0.965-6.984-3.621-10.535-9.29 c-1.801-2.989-3.572-7.783-5.517-14.83c-1.048-3.768-2.136-7.528-3.222-11.044c-1.086-3.52-2.139-6.709-3.188-9.455 c0,0-0.039,1.895-0.121,6.405c0.002,2.58,0.023,6.046,0.045,10.058c0.023,4.012-0.021,8.31-0.149,12.555 c-0.202,3.8-0.317,7.094-0.395,10.323c-0.075,3.157-0.122,6.509-0.126,10.057c0,3.545,0,7.349,0,11.399 c0,190.295,0,924.292,0,924.292s236.614-271.792,270.633-688.388c3.782-46.287,5.062-94.364,3.183-144.027 c-0.294-8.715-0.69-17.478-1.288-26.211c-0.748-8.619-1.511-17.237-2.133-25.91c-0.615-8.787-1.194-17.84-1.667-27.13 c-0.195-4.209-0.43-8.475-0.707-12.752c-0.283-4.284-0.604-8.54-0.83-12.72c-0.229-4.184-0.39-8.26-0.578-12.221 c-0.187-3.961-0.439-7.847-0.759-11.737C1182.775,217.306,1182.295,213.417,1181.427,209.47z"/> <path fill="#FFFFFF" d="M917.263,1182.28c0,0,113.252,22.838,91.246,182.674h-17.883c0,0,1.375,25.691-11.004,20.545 c-12.381-5.145-26.135-14.771-26.135-14.771s3.385-15.676-7.936-5.773c-11.32,9.9-19.973,12.648-21.148,5.773 c-1.175-6.879,0-15.131,0-15.131L917.263,1182.28z"/> <path fill="#FBC9AC" d="M903.767,1177.466c0,6.078,4.926,11.004,11.006,11.004h19.774c6.077,0,11.005-4.926,11.005-11.004l0,0 c0-6.078-4.928-11.006-11.005-11.006h-19.774C908.692,1166.46,903.767,1171.388,903.767,1177.466L903.767,1177.466z"/> </g> </g> <ellipse fill="#FFFFFF" cx="1539.756" cy="2037.124" rx="873.129" ry="66.797"/> <g> <path fill="#FBCEB3" d="M1197.887,2042.704h18.744l115.189-258.477c-14.331-4.986-27.612-10.244-39.744-15.74L1197.887,2042.704z"/> <path fill="#FABE96" d="M1292.076,1768.487c12.132,5.496,25.413,10.754,39.744,15.74l14.844-33.305h-48.558L1292.076,1768.487z"/> <path fill="#FBCEB3" d="M1743.434,2038.649h18.742l-68.713-200.047c-13.401-0.287-26.659-0.729-39.767-1.314L1743.434,2038.649z"/> <path fill="#FABE96" d="M1653.696,1837.288c13.107,0.586,26.365,1.027,39.767,1.314l-30.116-87.68h-48.138L1653.696,1837.288z"/> <polygon fill="#FABE96" points="1473.234,2001.593 1491.984,2001.593 1510.326,1750.923 1460.665,1750.923 "/> <path fill="#F6922C" d="M1221.78,1742.696h1.687c-0.578,0-1.14-0.061-1.712-0.082 C1221.762,1742.636,1221.78,1742.696,1221.78,1742.696z"/> <path fill="#F6922C" d="M1229.518,1647.913c-0.176,0.51-0.271,0.793-0.271,0.793l-1.762,2.928 c2.097-0.707,4.353-1.432,6.803-2.178c-1.589,0-3.179,0.021-4.771,0.021V1647.913z"/> <path fill="#F6922C" d="M1757.476,1215.581c-0.679,0.012-1.346,0.037-2.026,0.047c-15.073,0.463-29.829,1.453-44.422,3.125 c-14.843,1.77-29.281,4.314-43.18,7.521c-13.781,3.027-27.088,6.803-40.007,10.918c-25.979,7.59-50.724,17.227-74.737,28.67 c-23.963,11.414-47.377,24.84-69.659,39.738c-44.946,29.744-83.774,65.637-116.287,103.143 c-32.515,37.51-58.729,76.617-78.905,112.395c-23.716,42.057-39.927,78.723-49.271,101.822 c11.843-15.111,25.357-26.785,46.123-30.939c34.297-6.854,69.785-1.338,104.382-3.883c27.914-2.049,53.129-8.492,75.043-20.438 c21.911-11.938,40.531-29.387,55.254-53.473c16.787-28.605,35.298-55.836,55.933-81.063c20.021-25.305,41.92-47.998,66.268-67.191 c25.644-20.227,50.345-36.074,76.92-46.158c25.562-9.979,53.138-14.879,85.185-12.98c18.583-10.633,35.567-20.244,49.961-28.4 c7.047-4.086,13.416-7.48,19.012-10.283c1.871-0.93,3.652-1.795,5.339-2.594c3.401-1.607,6.466-2.961,9.198-4.145 c2.812-1.273,5.3-2.373,7.343-3.256c4.095-1.768,6.195-2.496,6.195-2.496c-3.238,1.959-6.481,3.957-9.602,5.852 c-3.075,1.877-5.989,3.609-8.845,5.336c-2.851,1.715-5.689,3.451-8.517,5.213c-14.123,8.785-28.204,17.959-41.635,26.969 c-21.496,14.424-41.361,27.596-59.102,41.342c-17.73,13.605-33.444,28.533-47.42,44.393 c-32.153,35.539-56.144,75.734-74.681,115.953c-19.935,40.082-33.043,80.305-41.495,116.146 c-10.137,42.939-13.581,79.563-14.717,102.053c30.727-6.104,60.353-16.104,88.503-29.594 c49.203-23.586,93.898-57.797,130.705-100.41c36.807-42.633,63.857-93.818,80.408-151.119 c16.555-57.303,24.033-120.59,22.176-187.371c-3.022-4.83-7.09-9.668-12.544-13.209c-3.29-2.139-19.76-13.447-102.749-21.398 c-0.016,0-0.03,0-0.048-0.004c-7.019-0.279-14.012-0.459-20.917-0.467C1772.761,1215.345,1765.03,1215.431,1757.476,1215.581z"/> <path fill="#F5872C" d="M1942.67,1364.948c-1.009-14.07-2.535-27.881-4.104-41.127c-2.688-16.652-6.168-31.41-9.863-43.834 c-1.262-4.141-2.574-8.012-3.9-11.609c-0.662-1.809-2.78-9.865-7.887-17.955c1.857,66.781-5.621,130.068-22.176,187.371 c-16.551,57.301-43.602,108.486-80.408,151.119c-36.807,42.613-81.502,76.824-130.705,100.41 c-28.15,13.49-57.776,23.49-88.503,29.594c-0.761,15.053-0.486,23.779-0.486,23.779h144.906h18.528 c0.698,0,1.35,0.189,1.926,0.506c53.699-5.186,88.649-60.754,88.649-60.754c22.248-29.031,40.489-59.883,54.259-91.234 c13.766-31.346,23.137-63.191,29.316-94.08c6.174-30.895,9.448-60.877,10.801-89.406 C1943.628,1393.38,1943.551,1379.024,1942.67,1364.948z"/> <path fill="#F5872C" d="M1682.554,1402.681c19.982-22.969,40.488-41.756,60.838-57.076c20.244-15.35,40.604-27.475,59.552-38.117 c0.386-0.219,0.761-0.434,1.145-0.652c-32.047-1.898-59.623,3.002-85.185,12.98c-26.575,10.084-51.276,25.932-76.92,46.158 c-24.348,19.193-46.247,41.887-66.268,67.191c-20.635,25.227-39.146,52.457-55.933,81.063 c-14.723,24.086-33.343,41.535-55.254,53.473c-21.914,11.945-47.129,18.389-75.043,20.438 c-34.597,2.545-70.085-2.971-104.382,3.883c-20.766,4.154-34.28,15.828-46.123,30.939c-5.468,13.527-8.583,22.391-9.464,24.953 v1.564c1.592,0,3.182-0.021,4.771-0.021c41.075-12.477,133.975-29.977,337.108-34.32l0.001,0.01 c7.593-28.533,16.819-54.646,27.356-78.514C1623.077,1480.915,1652.59,1437.126,1682.554,1402.681z"/> <path fill="#FFCF59" d="M1223.467,1658.021h338.17c2.844-14.869,6.108-29.154,9.761-42.875l-0.001-0.01 c-203.134,4.344-296.033,21.844-337.108,34.32c-2.45,0.746-4.706,1.471-6.803,2.178l-2.288,3.803 c-6.141,0.514-12.357,2.246-18.033,4.801c-2.053,1.195-3.039,1.977-3.343,2.229 C1209.733,1659.62,1216.405,1658.021,1223.467,1658.021z"/> <path fill="#F4812C" d="M1551.487,1732.817c2.233-26.443,5.662-51.355,10.149-74.797h-338.17c-7.062,0-13.733,1.6-19.646,4.445 c-13.071,6.293-22.435,18.666-24.09,33.258C1232.766,1714.374,1374.734,1728.706,1551.487,1732.817z"/> <path fill="#FAAD3D" d="M1651.336,1500.718c18.537-40.219,42.527-80.414,74.681-115.953c13.976-15.859,29.689-30.787,47.42-44.393 c17.74-13.746,37.605-26.918,59.102-41.342c13.431-9.01,27.512-18.184,41.635-26.969c2.827-1.762,5.666-3.498,8.517-5.213 c2.855-1.727,5.77-3.459,8.845-5.336c3.12-1.895,6.363-3.893,9.602-5.852c0,0-2.101,0.729-6.195,2.496 c-2.043,0.883-4.531,1.982-7.343,3.256c-2.732,1.184-5.797,2.537-9.198,4.145c-1.687,0.799-3.468,1.664-5.339,2.594 c-5.596,2.803-11.965,6.197-19.012,10.283c-14.394,8.156-31.378,17.768-49.961,28.4c-0.384,0.219-0.759,0.434-1.145,0.652 c-18.948,10.643-39.308,22.768-59.552,38.117c-20.35,15.32-40.855,34.107-60.838,57.076 c-29.964,34.445-59.477,78.234-83.8,133.951c-10.537,23.867-19.764,49.98-27.356,78.514c-3.652,13.721-6.917,28.006-9.761,42.875 c-4.487,23.441-7.916,48.354-10.149,74.797c-0.276,3.283-0.568,6.549-0.808,9.879h16.358h27.6c0,0-0.274-8.727,0.486-23.779 c1.136-22.49,4.58-59.113,14.717-102.053C1618.293,1581.022,1631.401,1540.8,1651.336,1500.718z"/> <path fill="#FAAD3D" d="M1225.197,1655.437l2.288-3.803l1.762-2.928c0,0,0.095-0.283,0.271-0.793 c0.881-2.563,3.996-11.426,9.464-24.953c9.344-23.1,25.555-59.766,49.271-101.822c20.176-35.777,46.391-74.885,78.905-112.395 c32.513-37.506,71.341-73.398,116.287-103.143c22.282-14.898,45.696-28.324,69.659-39.738 c24.014-11.443,48.759-21.08,74.737-28.67c12.919-4.115,26.226-7.891,40.007-10.918c13.898-3.207,28.337-5.752,43.18-7.521 c14.593-1.672,29.349-2.662,44.422-3.125c0.239-0.006,0.473-0.018,0.709-0.027c0.435-0.008,0.881-0.012,1.317-0.02 c7.555-0.15,15.285-0.236,23.183-0.236c6.905,0.008,13.898,0.188,20.917,0.467c1.49,0.061,2.969,0.094,4.462,0.164 c0,0-2.965-0.387-8.497-0.859c-5.533-0.471-13.626-0.926-23.877-1.088c-5.042-0.133-10.57-0.273-16.52-0.348 c-5.956-0.094-12.344-0.115-19.091-0.02c-13.384,0.273-28.701,0.992-45.402,2.682c-8.335,0.904-16.987,2.059-25.827,3.451 c-8.856,1.389-17.887,3.051-27.12,4.977c-9.247,1.902-18.705,3.959-28.402,6.287c-9.688,2.32-19.627,4.922-29.765,7.9 c-20.447,5.893-41.948,13.605-64.269,23.605c-22.79,9.947-46.22,22.176-69.721,37.195 c-47.006,30.051-93.649,71.449-136.656,128.113c-21.514,28.336-41.846,60.742-60.729,97.6 c-18.885,36.857-36.376,78.121-52.275,124.07l0.169,15.877c0.236-0.172,0.457-0.363,0.705-0.535 c2.583-1.746,5.425-3.305,8.403-4.646C1212.84,1657.683,1219.057,1655.95,1225.197,1655.437z"/> <path fill="#F2722C" d="M1739.544,1742.696h-144.906h-27.6h-16.358c0.239-3.33,0.531-6.596,0.808-9.879 c-176.753-4.111-318.722-18.443-371.756-37.094c-0.178,1.525-0.278,3.068-0.278,4.643c0,22.818,18.8,41.371,42.302,42.248 c0.572,0.021,1.134,0.082,1.712,0.082h2.429c-2.271,0-4.115,1.836-4.115,4.115c0,2.264,1.844,4.111,4.115,4.111h72.211h48.558 h114.001h49.661h104.883h48.138h94.726c2.265,0,4.104-1.848,4.104-4.111c0-1.576-0.89-2.92-2.178-3.609 c-0.576-0.316-1.228-0.506-1.926-0.506H1739.544z"/> </g> <g> <g> <path fill="#CCDD68" d="M2092.208,1437.858c-0.187,0-0.377-0.012-0.567-0.035c-2.519-0.311-4.308-2.604-3.997-5.119 c1.08-8.756,1.335-17.445,1.45-25.529c0.123-8.645,0.016-17.135-0.316-25.229c-0.319-7.799-0.843-15.861-1.6-24.645 c-0.614-7.137-1.289-14.164-1.953-21.07l-0.281-2.949c-0.746-7.824-1.4-15.609-1.944-23.141 c-0.484-7.51-0.985-14.836-1.504-22.025c-3.64-44.893,3.619-78.111,12.015-107.307c3.669-15.229,4.556-32.121,2.875-54.754 c-0.377-5.086-0.805-10.393-1.251-15.947c-1.37-17.041-2.923-36.354-3.814-58.824c-1.29-32.475-0.21-70.374,3.214-112.648 c4.011-49.613,10.626-110.152,15.939-157.353c0.283-2.518,2.546-4.336,5.077-4.05c2.521,0.284,4.335,2.557,4.052,5.078 c-5.308,47.133-11.913,107.579-15.912,157.064c-3.395,41.909-4.467,79.437-3.191,111.544c0.885,22.283,2.429,41.498,3.793,58.451 c0.448,5.574,0.875,10.9,1.254,16.002c1.758,23.676,0.793,41.467-3.129,57.689c-0.015,0.063-0.032,0.127-0.051,0.189 c-8.166,28.383-15.238,60.648-11.711,104.16c0.523,7.254,1.024,14.604,1.509,22.1c0.536,7.428,1.184,15.143,1.923,22.896 l0.283,2.945c0.666,6.934,1.344,13.992,1.961,21.156c0.768,8.924,1.299,17.121,1.626,25.059 c0.339,8.264,0.446,16.924,0.323,25.736c-0.119,8.344-0.385,17.332-1.519,26.521 C2096.474,1436.153,2094.493,1437.858,2092.208,1437.858z"/> </g> <g> <g> <path fill="#FFDE57" d="M2160.043,1498.755c-18.881-30.047-42.938-57.137-52.239-91.041l-5.709-15.379 c-2.341,1.063-4.668,2.086-6.987,3.098c-2.324-1.012-4.648-2.035-6.99-3.098l-5.709,15.379 c-12.775,46.566-53.399,80.273-70.19,126.459c-13.41,36.883-17.517,81.461-13.284,122.283 c5.839,56.404,30.317,97.154,56.496,135.324C2105.953,1769.481,2146.893,1652.474,2160.043,1498.755z"/> <path fill="#FFCE56" d="M2177.998,1534.173c-4.568-12.559-10.903-24.193-17.955-35.418 c-13.15,153.719-54.09,270.727-104.613,293.025c2.011,2.936,4.029,5.857,6.055,8.766h67.245 c28.367-40.76,56.261-83.354,62.551-144.09C2195.511,1615.634,2191.404,1571.056,2177.998,1534.173z"/> </g> <g> <g> <path fill="#D27438" d="M2171.803,1948.333c0,3.963-3.206,7.174-7.168,7.174h-139.507c-3.956,0-7.162-3.211-7.162-7.174l0,0 c0-3.953,3.206-7.164,7.162-7.164h139.507C2168.597,1941.169,2171.803,1944.38,2171.803,1948.333L2171.803,1948.333z"/> <path fill="#F8A246" d="M2043.781,1817.896c-7.921-2.146-16.079,2.533-18.231,10.451l-53.326,196.787 c-2.146,7.918,2.531,16.082,10.455,18.225c7.923,2.148,16.082-2.531,18.229-10.453l53.332-196.783 C2056.384,1828.204,2051.699,1820.04,2043.781,1817.896z"/> <path fill="#F8A246" d="M2212.806,2025.134l-53.326-196.787c-2.147-7.918-10.306-12.598-18.228-10.451 c-7.925,2.145-12.602,10.309-10.458,18.227l53.332,196.783c2.144,7.922,10.304,12.602,18.226,10.453 C2210.276,2041.216,2214.953,2033.052,2212.806,2025.134z"/> </g> <path fill="#F8A246" d="M2219.713,1817.128c0,9.156-7.426,16.58-16.586,16.58h-219.219c-9.157,0-16.579-7.424-16.579-16.58l0,0 c0-9.158,7.422-16.582,16.579-16.582h219.219C2212.287,1800.546,2219.713,1807.97,2219.713,1817.128L2219.713,1817.128z"/> </g> </g> <path fill="#CCDD68" d="M2078.025,1262.052c13.398-20.758,24.184-43.896,36.086-66.158c11.903-22.254,25.246-43.463,47.017-59.305 c29.228-13.971,49.934-6.727,88.909,8.078c-11.573,15.209-23.381,26.146-37.479,34.984 c-12.688,10.645-28.998,19.895-48.998,30.592c-23.442,12.873-54.047,32.762-80.651,39.598L2078.025,1262.052z"/> <path fill="#CCDD68" d="M2088.023,1249.88c-11.848-0.914-23.665-5.273-35.183-11.912c-11.515-6.635-22.616-15.516-33.107-25.023 c-11.129-8.141-21.771-16.289-31.45-23.574c-9.979-6.225-19.242-12.045-27.359-16.789c-19.124-6.521-21.338-15.051-12.635-24.783 c8.706-9.736,29.263-15.453,56.012-12.004c14.715,3.541,29.708,8.887,41.918,16.67c11.367,8.887,20.021,19.77,23.981,32.143 c6.817,22.619,6.349,39.873,20.378,56.619L2088.023,1249.88z"/> <path fill="#CCDD68" d="M2094.832,1088.544c-33.682-4.197-73.03-34.539-91.766-59.803c-18.978-19.633-59.575-53.806,12.752-44.324 c43.404,5.695,62.247,25.214,67.566,52.427c3.012,25.141,8.53,40.871,17.846,65.402L2094.832,1088.544z"/> <path fill="#CCDD68" d="M2099.188,1025.2c-0.306-21.531,11.403-44.632,32.169-61.148c20.77-16.513,49.376-24.64,75.481-13.434 c22.894,7.997,27.737,13.681,23.509,24.57c-5.709,13.48-37.596,19.076-58.075,31.906c-17.859,14.428-36.326,27.904-51.282,43.492 c-3.736,3.85-7.336,7.785-10.719,11.836c-3.338,3.918-6.392,7.783-8.826,11.439c-2.406,3.566-4.162,6.879-5.371,10.24 c-1.211,3.326-2.035,6.914-2.51,10.977c0,0-0.121-6.498-0.499-14.955c-0.19-4.23-0.023-9.578,0.547-15.443 c0.843-6.309,1.774-12.893,2.621-18.803C2097.922,1034.063,2099.188,1025.2,2099.188,1025.2z"/> <path fill="#CCDD68" d="M2097.845,923.815c-5.379-3.153-10.741-8.234-16.344-14.399c-5.544-6.006-11.649-12.902-17.942-20.004 c-6.738-6.921-13.892-13.648-20.615-19.648c-6.931-6.038-12.734-11.475-17.55-15.492c-5.362-3.212-10.482-5.985-15.103-8.587 c-4.619-2.598-8.728-5.026-12.097-7.546c-6.633-5.059-10.243-11.658-9.438-21.646c18.088-10.736,43.072-14.684,63.975-11.35 c8.941,4.277,16.451,10.578,22.415,17.18c5.961,6.602,10.4,13.502,13.324,18.967c3.154,5.766,5.445,12.027,7.188,18.562 c1.749,6.537,2.865,13.354,3.587,20.24c0.577,6.896,0.669,13.854,0.549,20.517c-0.105,6.656-0.381,12.968-0.48,18.87 L2097.845,923.815z"/> <path fill="#CCDD68" d="M2207.847,804.891c-7.78-1.974-18.835-3.093-30.251-1.547c-10.062,3.731-20.126,11.45-29.457,22.074 c-4.773,5.647-9.522,12.203-13.957,19.1c-4.514,6.921-9.041,14.184-13.195,21.198c-4.468,6.993-8.203,12.91-10.829,17.697 c-2.63,4.786-4.168,8.453-4.426,10.936c0,0-1.935,8.152-3.259,16.319c-1.327,8.166-1.818,16.358-1.818,16.358 c1.512-3.538,8.369-8.831,17.594-14.862c5.347-3,11.339-6.089,17.016-8.927c5.736-2.867,10.943-5.494,14.646-7.568 c8.549-5.156,17.411-10.886,25.695-16.182c8.122-5.188,16.468-10.398,24.328-16.09c7.863-5.697,15.232-11.7,21.417-17.326 c6.526-4.353,12.201-7.897,16.179-11.131c9.607-3.678,10.745-7.24,5.542-11.826 C2237.671,818.173,2224.646,810.847,2207.847,804.891z"/> <g> <path fill="#CCDD68" d="M2087.961,679.544c-14.501-2.914-29.878-0.309-33.242,1.636c-7.18,4.891-0.864,14.514,10.619,30.89 c9.016,12.856,17.481,30.84,26.586,49.907c7.854,20.104,16.095,39.007,25.494,53.362c3.695-19.699,10.15-41.134,15.208-59.035 c2.861-11.952,3.952-32.677-2.842-48.033C2121.154,695.031,2106.587,684.384,2087.961,679.544z"/> </g> </g> <g> <g> <g> <g> <path fill="#FBCEB4" d="M701.019,2045.263h7.79l47.88-207.051c-5.957-3.994-11.477-8.207-16.52-12.613L701.019,2045.263z"/> </g> </g> <g> <g> <path fill="#FABE95" d="M740.169,1825.599c5.043,4.406,10.563,8.619,16.52,12.613l6.168-26.686h-20.181L740.169,1825.599z"/> </g> </g> <g> <g> <path fill="#FBCEB4" d="M927.776,2042.015h7.791l-28.561-160.252c-5.57-0.229-11.084-0.58-16.533-1.047L927.776,2042.015z"/> </g> </g> <g> <g> <path fill="#FABE95" d="M890.474,1880.716c5.449,0.467,10.963,0.818,16.533,1.047l-12.521-70.236h-20.007L890.474,1880.716z"/> </g> </g> <g> <g> <polygon fill="#FABE95" points="815.467,2012.331 823.259,2012.331 830.884,1811.526 810.243,1811.526 "/> </g> </g> </g> <g> <path fill="#FAAD3D" d="M954.81,1711.343c-0.439-0.021-0.887-0.035-1.336-0.035H683.108c-14.158,0-25.634,11.475-25.634,25.637 l19.298,137.973c0,4.662,1.424,8.996,3.848,12.588C830.823,1872.636,946.244,1800.194,954.81,1711.343z"/> <path fill="#F6922C" d="M954.81,1711.343c-8.565,88.852-123.986,161.293-274.189,176.162c1.159,1.719,2.543,3.268,4.115,4.607 h267.107c4.875-4.141,7.968-10.307,7.968-17.195l19.301-137.973C979.111,1723.229,968.349,1712.038,954.81,1711.343z"/> <path fill="#F2722C" d="M699.331,1897.476h237.925c5.567,0,10.655-2.027,14.587-5.363H684.735 C688.672,1895.448,693.762,1897.476,699.331,1897.476z"/> </g> </g> <g> <g> <g> <g> <rect x="2010.239" y="185.394" fill="#FFFFFF" width="304.034" height="376.507"/> </g> <g> <path fill="#FBC9AC" d="M2324.134,571.761h-323.753V175.538h323.753V571.761z M2020.103,552.041h284.312V195.254h-284.312 V552.041z"/> </g> </g> </g> <g> <g> <path fill="#5BAA7F" d="M2142.489,417.795c0,0-0.19-4.912-0.474-13.416c-0.283-8.486-0.371-21.041,0.055-36.434 c0.256-7.779,0.427-16.832,0.391-26.735c-0.036-9.896-0.262-20.398-0.677-30.502c-0.414-10.079-0.92-19.667-1.469-28.314 c-0.555-8.654-1.17-16.236-1.852-22.408c-2.535-22.749-4.708-35.372-4.708-35.372s1.05,3.226,2.683,9.52 c1.638,6.293,3.854,15.655,6.181,27.93c1.182,6.258,2.354,14.227,3.552,23.168c1.194,8.945,2.51,18.662,3.894,28.529 c1.381,9.875,2.773,19.541,4.066,28.325c1.254,8.748,2.524,16.523,3.847,23.122c2.683,13.021,5.192,23.111,6.991,30.513 c1.949,7.015,3.084,11.32,3.084,11.32L2142.489,417.795z"/> <path fill="#92C0A7" d="M2154.285,426.597c0,0,0.146-11.54-0.166-28.522c-0.104-8.346,0.242-18.149,1.184-28.651 c0.484-5.26,1.215-10.779,2.143-16.509c0.926-5.727,1.98-11.637,3.096-17.593c1.112-5.963,2.162-11.902,3.066-17.686 c0.9-5.792,1.64-11.41,2.115-16.735c0.947-10.653,1.31-20.474,1.26-28.913c-0.829-16.215-2.04-26.703-2.04-26.703 s2.6,9.268,5.279,23.817c1.344,7.277,2.361,16.1,3.05,25.788c0.689,9.691,1.059,20.183,1.138,30.632 c0.075,10.448,0.062,20.692,0.323,29.846c0.266,9.178,1.021,17.445,1.963,24.604c2.613,14.18,4.657,24.044,4.657,24.044 l-7.944,23.003L2154.285,426.597z"/> <g> <path fill="#9AD09D" d="M2132.855,431.878c0,0-0.313-4.689-0.913-12.479c-0.603-7.776-1.446-18.389-2.372-30.015 c-0.555-5.529-1.258-11.163-2.021-16.767c-1.67-9.52-3.842-19.477-6.485-29.516c-2.537-9.979-5.196-20.37-6.69-30.682 c-2.981-20.628-2.259-36.972-2.259-36.972s0.983,10.951,4.014,26.222c2.306,7.417,5.323,15.551,8.946,23.753 c3.63,8.202,7.555,16.498,11.294,24.535c3.508,8.195,6.757,16.337,9.473,24.241c2.704,7.897,4.869,15.755,6.781,22.677 c3.763,14.288,6.065,24.173,6.065,24.173L2132.855,431.878z"/> <path fill="#98D1B0" d="M2186.91,427.727c0,0,2.141-11.432,4.923-28.177c1.22-8.052,2.567-17.137,4.028-26.498 c1.578-9.268,3.162-18.845,4.525-28.479c0.971-9.487,1.892-19.196,2.899-28.454c1.005-9.261,2.467-18.228,4.71-26.34 c4.481-16.218,8.361-27.445,8.361-27.445s-5.47,10.973-12.813,27c-2.865,7.725-5.594,16.426-8.064,25.465 c-2.212,8.898-4.52,18.289-6.948,27.517c-2.851,9.379-6.032,18.744-9.112,27.689c-2.996,9.053-5.73,17.646-8.14,25.257 c-4.874,15.321-8.505,25.806-8.505,25.806L2186.91,427.727z"/> <path fill="#AAD8B2" d="M2226.842,333.715c0,0-0.254,4.489-1.137,11.417c-1.014,3.707-2.885,8.263-5.591,13.29 c-2.703,5.023-6.347,10.294-10.974,15.393c-5.722,4.93-11.592,9.817-16.742,14.331c-2.576,2.257-4.908,4.417-7.049,6.724 s-4.173,4.869-5.983,7.467c-1.941,2.82-3.834,5.684-5.879,8.977c-1.065,1.852-2.115,3.807-3.082,5.734 c-0.971,1.927-1.852,3.753-2.578,5.246c-2.655,4.984-3.583,6.541-3.583,6.541s2.017-0.032,5.427-0.883 c1.749-0.592,3.823-1.381,6.014-2.178c2.194-0.8,4.494-1.55,6.706-2.067c3.787,0.341,6.981,1.88,9.166,3.495 c2.133,1.744,3.555,2.906,3.555,2.906s1.057-5.641,2.609-14.241c0.779-4.302,2.162-9.466,5.37-15.21 c3.21-5.748,7.953-12.081,12.822-18.49c4.6-6.103,8.231-12.594,10.328-18.773c2.098-6.175,2.842-11.647,2.932-16.125 C2228.119,338.939,2226.842,333.715,2226.842,333.715z"/> <g> <path fill="#B4DDC3" d="M2145.331,424.369c0,0-0.425-0.933-1.026-2.623c-0.536-0.926-1.471-2.354-3.385-5.152 c-0.942-1.528-2.164-3.556-3.244-5.486c-0.978-1.762-1.79-3.319-2.557-4.818c-0.725-1.285-1.477-2.519-2.246-3.7 c-0.766-1.18-1.563-2.325-2.39-3.441c-1.655-2.199-3.394-4.453-5.165-6.717c-3.549-4.518-7.227-9.106-10.71-13.333 c-14.907-15.382-29.925-26.394-29.925-26.394s2.255,3.678,5.467,9.333c3.217,5.655,7.416,13.796,11.698,22.889 c3.639,7.646,7.524,15.942,10.825,23.502c1.099,2.519,2.134,4.959,3.068,7.259c1.927,4.862,3.47,8.88,4.541,11.665 c1.063,2.784,1.648,4.37,1.648,4.37s5.729-1.105,11.328-1.697c5.637-0.43,11.244-0.61,11.244-0.61l7.955-3.14 c-0.705-0.161-1.372-0.315-1.977-0.466C2147.203,424.936,2145.331,424.369,2145.331,424.369z"/> <path fill="#B4DDC3" d="M2230.813,422.485c-3.168-5.36-6.269-9.752-9.32-13.193c-6.146-6.979-12.109-9.856-17.476-10.266 c-2.684-0.201-5.093,0.011-7.196,0.445c-2.103,0.43-3.902,1.087-5.363,1.769c-2.903,1.439-4.464,3.161-4.464,3.161 s-3.579,3.021-7.363,8.472c-1.886,2.727-4.119,5.468-6.81,7.452c-2.689,1.984-5.876,3.251-9.069,3.883 c-6.38,1.259-11.292,2.066-11.292,2.066c1.157,0.251,2.43,0.499,3.818,0.718c2.223,0.352,4.693,0.606,7.367,0.753 c2.039-0.018,4.172-0.133,6.358-0.359c2.143-0.283,4.322-0.689,6.528-1.209c2.145-0.599,4.297-1.277,6.453-1.991 c2.162-0.718,4.396-1.417,6.712-2.013c2.209-0.086,4.43,0.086,6.622,0.445c2.195,0.366,4.336,0.886,6.412,1.55 c4.189,1.414,8.177,3.104,11.789,4.926c14.422,7.291,25.922,12.422,25.922,12.422 C2237.156,434.186,2233.978,427.853,2230.813,422.485z"/> </g> <path fill="#98D1B0" d="M2126.637,404.089c0,0-9.002-2.522-20.02-0.431c-5.258,1.148-10.857,3.728-15.583,8.687 c-4.726,4.958-8.613,12.411-11.38,23.14c0,0,12.153-7.151,26.646-10.775c7.257-1.733,15.716-2.074,23.855-1.03 c8.574,1.048,16.341,3.567,21.47,8.522C2171.479,452.776,2126.637,404.089,2126.637,404.089z"/> </g> </g> <g> <path fill="#DCDCDC" d="M2204.604,445.589c0,0-5.944,0-14.858,0c-8.913,0-20.795,0-32.681,0c-11.85,0-23.343,0-31.425,0.003 c-7.565,0.072-12.435,0.323-12.435,0.323c-0.264,2.727-0.425,5.493-0.513,8.285c-0.241,7.585,0.399,14.754,1.929,21.338 c1.619,6.631,4.521,12.605,8.541,17.636c8.606,10.054,20.623,16.272,33.902,16.272c26.552,0,48.082-24.876,48.082-55.558 C2205.146,451.068,2204.955,448.298,2204.604,445.589z"/> <path fill="#DCDCDC" d="M2195.89,421.132c0,0-19.412,0-38.825,0c-19.372,0-37.722,0.007-37.722,0.007 c-1.646,3.355-2.946,7.007-3.918,10.904c0,0,4.689-0.1,12.011-0.122c7.76,0,18.608,0,29.629,0c11.041,0,22.081,0,30.362,0 c8.278,0,13.8,0,13.8,0C2199.791,428.083,2198.001,424.466,2195.89,421.132z"/> <path fill="#ABABAB" d="M2201.227,431.922c0,0-5.521,0-13.8,0c-8.281,0-19.321,0-30.362,0c-11.021,0-21.869,0-29.629,0 c-7.321,0.021-12.011,0.122-12.011,0.122c-1.095,4.389-1.837,9.053-2.22,13.872c0,0,4.869-0.251,12.435-0.323 c8.082-0.003,19.575-0.003,31.425-0.003c11.886,0,23.768,0,32.681,0c8.914,0,14.858,0,14.858,0 C2203.982,440.802,2202.832,436.224,2201.227,431.922z"/> </g> </g> </g> <g> <g> <g> <g> <g> <rect x="407.229" y="608.981" fill="#FFFFFF" width="236.475" height="351.274"/> </g> <g> <path fill="#FBC9AC" d="M653.679,969.456H397.255V599.784h256.424V969.456z M417.21,951.056h216.517V618.18H417.21V951.056z"/> </g> </g> </g> </g> <g> <g> <path fill="#D0D2D3" d="M536.339,914.457c4.024-16.329,9.783-31.689,9.822-48.715c0.04-17.176,0.249-34.313-5.401-50.758 c-6.09-17.729-14.327-35.135-18.362-53.487c-3.85-17.507-6.013-41.228,2.195-57.733c1.442-2.902-2.906-5.453-4.354-2.543 c-7.069,14.216-6.283,30.785-5.018,46.239c1.557,18.992,8.779,36.412,15.467,54.044c6.979,18.404,10.404,35.587,10.469,55.304 c0.03,9.67-0.067,19.014-2.098,28.519c-2.006,9.387-5.285,18.475-7.582,27.793C530.7,916.273,535.563,917.611,536.339,914.457 L536.339,914.457z"/> </g> <g> <path fill="#D0D2D3" d="M535.259,800.47c7.254-8.234,17.709-12.981,24.438-21.766c8.406-10.976,14.876-21.051,16.158-35.131 c0.295-3.24-4.75-3.211-5.041,0c-1.222,13.405-8.068,24.019-16.723,33.969c-6.521,7.495-15.823,11.901-22.396,19.361 C529.554,799.333,533.105,802.914,535.259,800.47L535.259,800.47z"/> </g> <g> <path fill="#D0D2D3" d="M520.661,751.984c-5.691-4.621-13.276-5.234-19.436-9.264c-8.696-5.695-11.609-17.438-14.395-26.754 c-0.93-3.107-5.795-1.783-4.861,1.343c2.393,8.001,4.736,16.663,10.059,23.308c3.053,3.814,6.381,6.455,10.615,8.877 c4.567,2.612,10.334,2.709,14.453,6.057C519.597,757.582,523.187,754.037,520.661,751.984L520.661,751.984z"/> </g> <g> <path fill="#D0D2D3" d="M546.694,861.238c-4.697-10.879-10.877-16.541-20.096-23.835c-9.299-7.359-22.896-12.62-23.764-26.168 c-0.207-3.229-5.25-3.247-5.042,0c0.655,10.233,6.835,16.856,14.883,22.579c5.831,4.148,11.634,8.096,17.177,12.674 c6.057,4.998,9.387,10.111,12.488,17.295C543.626,866.76,547.97,864.188,546.694,861.238L546.694,861.238z"/> </g> <circle fill="#E3E4E5" cx="577.671" cy="724.152" r="21.66"/> <path fill="#929497" d="M550.264,677.74c0,13.67-11.083,24.75-24.753,24.75c-13.672,0-24.756-11.08-24.756-24.75 c0-13.675,11.084-24.759,24.756-24.759C539.181,652.981,550.264,664.065,550.264,677.74z"/> <circle fill="#B9BBBD" cx="496.087" cy="814.962" r="21.024"/> <circle fill="#DFE0E1" cx="472.907" cy="725.92" r="16.799"/> </g> </g> </g> </svg>